<svg version="1.1" id="Camada_1" xmlns="http://www.w3.org/2000/svg" xmlns:xlink="http://www.w3.org/1999/xlink" x="0px" y="0px"
	 viewBox="0 0 98 36" style="enable-background:new 0 0 98 36;" xml:space="preserve">
<style type="text/css">
	.st0{fill:#191919;}
</style>
<g>
	<path class="st0" d="M4.9,26.6c7.4,0.6,14.7,0.7,22.1,0.6l22-0.5c3.7-0.1,7.4-0.1,11-0.1c3.7,0,7.4,0.1,11,0.1c1.8,0,3.7,0.1,5.5,0
		l5.5-0.1c3.7-0.1,7.4-0.1,11-0.3c1.9-0.1,3.5,1.4,3.6,3.3s-1.4,3.5-3.3,3.6c-0.1,0-0.2,0-0.3,0h-0.1c-3.7-0.1-7.4-0.2-11-0.2
		l-5.5-0.1c-1.8,0-3.7,0-5.5,0l-11,0.1l-11,0.2c-7.4,0.2-14.7,0-22.1-0.1s-14.7,0-22.1,0.5H4.6c-1.9,0.1-3.6-1.3-3.7-3.2
		c-0.1-1.9,1.3-3.6,3.2-3.7C4.6,26.6,4.8,26.6,4.9,26.6z"/>
	<path class="st0" d="M4.9,14.9c7.4,0.6,14.7,0.7,22.1,0.6L49,15c3.7-0.1,7.4-0.1,11-0.1c3.7,0,7.4,0.1,11,0.2c1.8,0,3.7,0,5.5,0
		L82,15c3.7-0.1,7.4-0.2,11-0.4c1.9-0.1,3.6,1.4,3.7,3.3s-1.4,3.6-3.3,3.7c-0.1,0-0.2,0-0.3,0H93c-3.7-0.1-7.4-0.2-11-0.2l-5.5-0.1
		c-1.8,0-3.7,0-5.5,0l-11-0.1l-11,0.2c-7.4,0.2-14.7,0-22.1-0.1s-14.7,0-22.1,0.5H4.7C3,22,1.3,20.5,1.2,18.6
		C1,16.7,2.5,15,4.4,14.9C4.6,14.9,4.8,14.9,4.9,14.9z"/>
</g>
</svg>
