<svg version="1.1" id="Camada_1" xmlns="http://www.w3.org/2000/svg" xmlns:xlink="http://www.w3.org/1999/xlink" x="0px" y="0px"
	 viewBox="0 0 98 36" style="enable-background:new 0 0 98 36;" xml:space="preserve">
<style type="text/css">
	.st0{fill:#191919;}
</style>
<g>
	<path class="st0" d="M4.9,27.7c7.4,0.6,14.7,0.7,22.1,0.6L49,27.7c3.7-0.1,7.4-0.1,11-0.1c3.7,0,7.4,0.1,11,0.1
		c1.8,0,3.7,0.1,5.5,0l5.5-0.1c3.7-0.1,7.4-0.1,11-0.3c1.9-0.1,3.5,1.4,3.6,3.3c0.1,1.9-1.4,3.5-3.3,3.6c-0.1,0-0.2,0-0.3,0l-0.1,0
		c-3.7-0.1-7.4-0.2-11-0.2l-5.5-0.1c-1.8,0-3.7,0-5.5,0L60,34l-11,0.2c-7.4,0.2-14.7,0-22.1-0.1c-7.4-0.1-14.7,0-22.1,0.5l-0.1,0
		c-1.9,0.1-3.6-1.3-3.7-3.2c-0.1-1.9,1.3-3.6,3.2-3.7C4.6,27.6,4.8,27.6,4.9,27.7z"/>
	<path class="st0" d="M4.9,16c7.4,0.6,14.7,0.7,22.1,0.6L49,16c3.7-0.1,7.4-0.1,11-0.1c3.7,0,7.4,0.1,11,0.2c1.8,0,3.7,0,5.5,0
		l5.5-0.1c3.7-0.1,7.4-0.2,11-0.4c1.9-0.1,3.6,1.4,3.7,3.3c0.1,1.9-1.4,3.6-3.3,3.7c-0.1,0-0.2,0-0.3,0l-0.1,0
		c-3.7-0.1-7.4-0.2-11-0.2l-5.5-0.1c-1.8,0-3.7,0-5.5,0l-11,0.1l-11,0.2c-7.4,0.2-14.7,0-22.1-0.1c-7.4-0.1-14.7,0-22.1,0.5l-0.1,0
		C3,23,1.3,21.6,1.2,19.7C1,17.7,2.5,16.1,4.4,16C4.6,15.9,4.8,16,4.9,16z"/>
	<g>
		<circle class="st0" cx="48.8" cy="6.7" r="2.5"/>
		<path class="st0" d="M49,6.7c0-0.1-0.2-0.1-0.3,0.1c-0.1,0.1,0,0.3,0.1,0.3c0.1,0,0.2-0.2,0.1-0.3c-0.1-0.2-0.3-0.2-0.3-0.1
			c0,0,0,0.1,0,0.1c0,0,0.1,0,0.1,0c0.1,0,0.1,0,0.1,0c0,0,0.1,0,0.1,0C49,6.8,49,6.8,49,6.7C49,6.8,49,6.7,49,6.7z M43.5,6.7
			c0-0.7,0.1-1.4,0.3-2.1C44.1,4,44.5,3.4,45,2.9c1-1,2.4-1.5,3.8-1.5c1.4,0,2.8,0.5,3.8,1.5c0.5,0.5,0.9,1.1,1.1,1.7
			C54,5.3,54.1,6,54,6.7C54,8.1,53.1,9.3,52.1,10c-1,0.7-2.2,1-3.3,1c-1.1,0-2.3-0.3-3.3-0.9c-0.5-0.3-1-0.8-1.4-1.4
			C43.8,8.1,43.6,7.4,43.5,6.7z"/>
	</g>
</g>
</svg>
